<?xml version="1.0" encoding="UTF-8"?>
<svg width="700pt" height="700pt" version="1.1" viewBox="0 0 700 700"  xmlns="http://www.w3.org/2000/svg" xmlns:xlink="http://www.w3.org/1999/xlink">
 <defs>
  <symbol id="w" overflow="visible">
   <path d="m23.453-1.125c-1.2109 0.5-2.4688 0.875-3.7812 1.125-1.3125 0.25781-2.6836 0.39062-4.1094 0.39062-4.25 0-7.6172-0.94531-10.094-2.8438-2.4805-1.9062-3.7188-4.4844-3.7188-7.7344 0-3.2578 1.2383-5.8359 3.7188-7.7344 2.4766-1.9062 5.8438-2.8594 10.094-2.8594 1.4258 0 2.7969 0.13281 4.1094 0.39062 1.3125 0.25 2.5703 0.625 3.7812 1.125v4.2188c-1.2188-0.65625-2.4219-1.1406-3.6094-1.4531s-2.4375-0.46875-3.75-0.46875c-2.3438 0-4.1875 0.60547-5.5312 1.8125-1.3438 1.1992-2.0156 2.8555-2.0156 4.9688 0 2.1055 0.67188 3.7617 2.0156 4.9688 1.3438 1.1992 3.1875 1.7969 5.5312 1.7969 1.3125 0 2.5625-0.14844 3.75-0.45312 1.1875-0.3125 2.3906-0.80078 3.6094-1.4688z"/>
  </symbol>
  <symbol id="b" overflow="visible">
   <path d="m17.156-11.141c-0.53125-0.19531-1.0625-0.34375-1.5938-0.4375-0.53125-0.10156-1.0625-0.15625-1.5938-0.15625-1.5742 0-2.7891 0.40625-3.6406 1.2188-0.84375 0.80469-1.2656 1.9531-1.2656 3.4531v7.0625h-6.125v-15.312h6.125v2.5156c0.78125-1 1.6797-1.7266 2.7031-2.1875 1.0195-0.46875 2.2422-0.70312 3.6719-0.70312 0.19531 0 0.41406 0.011719 0.65625 0.03125 0.23828 0.011719 0.58594 0.039062 1.0469 0.078125z"/>
  </symbol>
  <symbol id="a" overflow="visible">
   <path d="m22.047-7.7031v1.4062h-14.312c0.15625 1.1484 0.67578 2.0078 1.5625 2.5781 0.88281 0.57422 2.125 0.85938 3.7188 0.85938 1.2891 0 2.6094-0.14844 3.9531-0.45312 1.3516-0.3125 2.7422-0.77344 4.1719-1.3906v3.7656c-1.4492 0.4375-2.8984 0.76562-4.3438 0.98438-1.4492 0.22656-2.8984 0.34375-4.3438 0.34375-3.4609 0-6.1523-0.70312-8.0781-2.1094-1.918-1.4062-2.875-3.3789-2.875-5.9219 0-2.5 0.94141-4.4609 2.8281-5.8906 1.8828-1.4375 4.4766-2.1562 7.7812-2.1562 3.0078 0 5.4141 0.73047 7.2188 2.1875 1.8125 1.4492 2.7188 3.3828 2.7188 5.7969zm-6.2969-1.625c0-0.92578-0.33984-1.6719-1.0156-2.2344-0.67969-0.57031-1.5625-0.85938-2.6562-0.85938-1.1797 0-2.1406 0.26562-2.8906 0.79688-0.74219 0.53125-1.1992 1.2969-1.375 2.2969z"/>
  </symbol>
  <symbol id="f" overflow="visible">
   <path d="m11.516-6.8906c-1.2734 0-2.2305 0.17188-2.875 0.51562-0.64844 0.34375-0.96875 0.85547-0.96875 1.5312 0 0.625 0.25781 1.1172 0.78125 1.4688 0.51953 0.34375 1.2383 0.51562 2.1562 0.51562 1.1562 0 2.125-0.32812 2.9062-0.98438 0.78906-0.66406 1.1875-1.4922 1.1875-2.4844v-0.5625zm9.3438-1.8438v8.7344h-6.1562v-2.2656c-0.82422 0.92969-1.75 1.6055-2.7812 2.0312-1.0234 0.41406-2.2656 0.625-3.7344 0.625-1.9805 0-3.5898-0.45703-4.8281-1.375-1.2422-0.92578-1.8594-2.1289-1.8594-3.6094 0-1.7891 0.76953-3.1016 2.3125-3.9375 1.5508-0.84375 3.9766-1.2656 7.2812-1.2656h3.6094v-0.39062c0-0.76953-0.38672-1.332-1.1562-1.6875-0.76172-0.36328-1.9492-0.54688-3.5625-0.54688-1.3125 0-2.5391 0.10547-3.6719 0.3125-1.125 0.21094-2.1719 0.52344-3.1406 0.9375v-3.7344c1.3125-0.25 2.6289-0.44141 3.9531-0.57812 1.3203-0.13281 2.6445-0.20312 3.9688-0.20312 3.4453 0 5.9375 0.54688 7.4688 1.6406 1.5312 1.0859 2.2969 2.8555 2.2969 5.3125z"/>
  </symbol>
  <symbol id="c" overflow="visible">
   <path d="m9.625-19.656v4.3438h6.2969v3.5h-6.2969v6.5c0 0.71094 0.17578 1.1875 0.53125 1.4375 0.35156 0.25 1.0508 0.375 2.0938 0.375h3.1406v3.5h-5.2344c-2.418 0-4.1328-0.39844-5.1406-1.2031-1.0117-0.8125-1.5156-2.1797-1.5156-4.1094v-6.5h-3.0312v-3.5h3.0312v-4.3438z"/>
  </symbol>
  <symbol id="e" overflow="visible">
   <path d="m15.969-13.078v-8.2031h6.1406v21.281h-6.1406v-2.2188c-0.84375 0.90625-1.7773 1.5703-2.7969 1.9844-1.0117 0.41406-2.1836 0.625-3.5156 0.625-2.3555 0-4.293-0.75-5.8125-2.25-1.5117-1.5-2.2656-3.4258-2.2656-5.7812 0-2.3633 0.75391-4.2969 2.2656-5.7969 1.5195-1.5 3.457-2.25 5.8125-2.25 1.3203 0 2.4922 0.21484 3.5156 0.64062 1.0195 0.42969 1.9531 1.0859 2.7969 1.9688zm-4.0469 9.9219c1.3125 0 2.3125-0.37891 3-1.1406 0.69531-0.76953 1.0469-1.8828 1.0469-3.3438 0-1.457-0.35156-2.5664-1.0469-3.3281-0.6875-0.76953-1.6875-1.1562-3-1.1562-1.293 0-2.2891 0.38672-2.9844 1.1562-0.6875 0.76172-1.0312 1.8711-1.0312 3.3281 0 1.4609 0.34375 2.5742 1.0312 3.3438 0.69531 0.76172 1.6914 1.1406 2.9844 1.1406z"/>
  </symbol>
  <symbol id="m" overflow="visible">
   <path d="m13.125-3.1562c1.3125 0 2.3125-0.37891 3-1.1406 0.6875-0.76953 1.0312-1.8828 1.0312-3.3438 0-1.457-0.34375-2.5664-1.0312-3.3281-0.6875-0.76953-1.6875-1.1562-3-1.1562s-2.3203 0.38672-3.0156 1.1562c-0.69922 0.77344-1.0469 1.8828-1.0469 3.3281 0 1.4492 0.34766 2.5586 1.0469 3.3281 0.69531 0.77344 1.7031 1.1562 3.0156 1.1562zm-4.0625-9.9219c0.84375-0.88281 1.7734-1.5391 2.7969-1.9688 1.0312-0.42578 2.207-0.64062 3.5312-0.64062 2.3633 0 4.3008 0.75 5.8125 2.25 1.5195 1.5 2.2812 3.4336 2.2812 5.7969 0 2.3555-0.76172 4.2812-2.2812 5.7812-1.5117 1.5-3.4492 2.25-5.8125 2.25-1.3242 0-2.5-0.21094-3.5312-0.625-1.0234-0.42578-1.9531-1.0859-2.7969-1.9844v2.2188h-6.125v-21.281h6.125z"/>
  </symbol>
  <symbol id="l" overflow="visible">
   <path d="m0.42188-15.312h6.125l5.1406 10.391 4.375-10.391h6.125l-8.0469 16.766c-0.8125 1.6953-1.7617 2.8828-2.8438 3.5625-1.0742 0.6875-2.4922 1.0312-4.25 1.0312h-3.5469v-3.2188h1.9219c1.0312 0 1.7812-0.13672 2.25-0.40625 0.47656-0.26172 0.84766-0.73047 1.1094-1.4062l0.17188-0.42188z"/>
  </symbol>
  <symbol id="k" overflow="visible">
   <path d="m12.562-11.359c1.375 0 2.3594-0.20312 2.9531-0.60938 0.60156-0.41406 0.90625-1.0938 0.90625-2.0312 0-0.92578-0.30469-1.5859-0.90625-1.9844-0.59375-0.40625-1.5781-0.60938-2.9531-0.60938h-2.7656v5.2344zm-2.7656 3.6406v7.7188h-6.5781v-20.406h10.047c3.3516 0 5.8125 0.45312 7.375 1.3594 1.5703 0.89844 2.3594 2.3203 2.3594 4.2656 0 1.3555-0.40625 2.4648-1.2188 3.3281-0.8125 0.86719-2.043 1.5-3.6875 1.9062 0.90625 0.16797 1.7109 0.54297 2.4219 1.125 0.70703 0.57422 1.4258 1.4492 2.1562 2.625l3.5781 5.7969h-7l-3.1094-5.0781c-0.63672-1.0195-1.2773-1.7109-1.9219-2.0781-0.63672-0.375-1.4922-0.5625-2.5625-0.5625z"/>
  </symbol>
  <symbol id="v" overflow="visible">
   <path d="m2.9375-15.312h6.125v15.312h-6.125zm0-5.9688h6.125v4h-6.125z"/>
  </symbol>
  <symbol id="j" overflow="visible">
   <path d="m18.406-14.828v3.9844c-0.83594-0.45703-1.6719-0.79688-2.5156-1.0156-0.83594-0.21875-1.6992-0.32812-2.5938-0.32812-1.7109 0-3.043 0.40234-4 1.2031-0.94922 0.79297-1.4219 1.9062-1.4219 3.3438 0 1.4297 0.47266 2.543 1.4219 3.3438 0.95703 0.79297 2.2891 1.1875 4 1.1875 0.95703 0 1.8633-0.10938 2.7188-0.32812 0.86328-0.22656 1.6602-0.56641 2.3906-1.0156v4c-0.96094 0.28125-1.9336 0.48828-2.9219 0.625-0.98047 0.14453-1.9648 0.21875-2.9531 0.21875-3.4609 0-6.1641-0.70703-8.1094-2.125-1.9492-1.4141-2.9219-3.3828-2.9219-5.9062 0-2.5312 0.97266-4.5039 2.9219-5.9219 1.9453-1.4141 4.6484-2.125 8.1094-2.125 1 0 1.9844 0.074219 2.9531 0.21875 0.97656 0.13672 1.9531 0.35156 2.9219 0.64062z"/>
  </symbol>
  <symbol id="i" overflow="visible">
   <path d="m22.188-9.3281v9.3281h-6.1562v-7.1094c0-1.3438-0.039062-2.2656-0.10938-2.7656-0.074219-0.5-0.20312-0.86719-0.39062-1.1094-0.24219-0.3125-0.5625-0.55469-0.96875-0.73438-0.40625-0.17578-0.875-0.26562-1.4062-0.26562-1.2734 0-2.2734 0.39844-3 1.1875-0.73047 0.78125-1.0938 1.8711-1.0938 3.2656v7.5312h-6.125v-21.281h6.125v8.2031c0.91406-0.88281 1.8906-1.5391 2.9219-1.9688 1.0391-0.42578 2.1914-0.64062 3.4531-0.64062 2.207 0 3.8828 0.54688 5.0312 1.6406 1.1445 1.0859 1.7188 2.6562 1.7188 4.7188z"/>
  </symbol>
  <symbol id="u" overflow="visible">
   <path d="m3.2188-20.406h6.5781v7.4375l9.4844-7.4375h7.6406l-12.297 9.6562 13.562 10.75h-8.25l-10.141-8.0469v8.0469h-6.5781z"/>
  </symbol>
  <symbol id="h" overflow="visible">
   <path d="m2.7344-5.9688v-9.3438h6.1562v1.5312c0 0.83594-0.007813 1.875-0.015625 3.125-0.011719 1.25-0.015625 2.0859-0.015625 2.5 0 1.2422 0.035156 2.1328 0.10938 2.6719 0.082031 0.54297 0.21875 0.93359 0.40625 1.1719 0.25781 0.32422 0.58594 0.57422 0.98438 0.75 0.40625 0.16797 0.875 0.25 1.4062 0.25 1.2695 0 2.2695-0.39062 3-1.1719 0.72656-0.78125 1.0938-1.8672 1.0938-3.2656v-7.5625h6.125v15.312h-6.125v-2.2188c-0.92969 0.89844-1.9062 1.5586-2.9375 1.9844-1.0312 0.41406-2.168 0.625-3.4062 0.625-2.2109 0-3.8906-0.53906-5.0469-1.625-1.1562-1.082-1.7344-2.6602-1.7344-4.7344z"/>
  </symbol>
  <symbol id="g" overflow="visible">
   <path d="m22.188-9.3281v9.3281h-6.1562v-7.1406c0-1.3203-0.039062-2.2344-0.10938-2.7344-0.074219-0.5-0.20312-0.86719-0.39062-1.1094-0.24219-0.3125-0.5625-0.55469-0.96875-0.73438-0.40625-0.17578-0.875-0.26562-1.4062-0.26562-1.2734 0-2.2734 0.39844-3 1.1875-0.73047 0.78125-1.0938 1.8711-1.0938 3.2656v7.5312h-6.125v-15.312h6.125v2.2344c0.91406-0.88281 1.8906-1.5391 2.9219-1.9688 1.0391-0.42578 2.1914-0.64062 3.4531-0.64062 2.207 0 3.8828 0.54688 5.0312 1.6406 1.1445 1.0859 1.7188 2.6562 1.7188 4.7188z"/>
  </symbol>
  <symbol id="t" overflow="visible">
   <path d="m11.516-6.8906c-1.2734 0-2.2305 0.17188-2.875 0.51562-0.64844 0.34375-0.96875 0.85547-0.96875 1.5312 0 0.625 0.25781 1.1172 0.78125 1.4688 0.51953 0.34375 1.2383 0.51562 2.1562 0.51562 1.1562 0 2.125-0.32812 2.9062-0.98438 0.78906-0.66406 1.1875-1.4922 1.1875-2.4844v-0.5625zm9.3438-1.8438v8.7344h-6.1562v-2.2656c-0.82422 0.92969-1.75 1.6055-2.7812 2.0312-1.0234 0.41406-2.2656 0.625-3.7344 0.625-1.9805 0-3.5898-0.45703-4.8281-1.375-1.2422-0.92578-1.8594-2.1289-1.8594-3.6094 0-1.7891 0.76953-3.1016 2.3125-3.9375 1.5508-0.84375 3.9766-1.2656 7.2812-1.2656h3.6094v-0.39062c0-0.76953-0.38672-1.332-1.1562-1.6875-0.76172-0.36328-1.9492-0.54688-3.5625-0.54688-1.3125 0-2.5391 0.10547-3.6719 0.3125-1.125 0.21094-2.1719 0.52344-3.1406 0.9375v-3.7344c1.3125-0.25 2.6289-0.44141 3.9531-0.57812 1.3203-0.13281 2.6445-0.20312 3.9688-0.20312 3.4453 0 5.9375 0.54688 7.4688 1.6406 1.5312 1.0859 2.2969 2.8555 2.2969 5.3125zm-6.7969-13.656h4.8281l-6.2969 5.1406h-3.3594z"/>
  </symbol>
  <symbol id="s" overflow="visible">
   <path d="m2.9375-21.281h6.125v11.594l7.0312-5.625h7.1094l-9.3438 7.0312 10.078 8.2812h-7.4062l-7.4688-6.3906v6.3906h-6.125z"/>
  </symbol>
  <symbol id="r" overflow="visible">
   <path d="m15.531-21.281v3.2188h-3.375c-0.86719 0-1.4688 0.125-1.8125 0.375s-0.51562 0.6875-0.51562 1.3125v1.0625h5.2344v3.5h-5.2344v11.812h-6.125v-11.812h-3.0312v-3.5h3.0312v-1.0625c0-1.6641 0.57812-2.8984 1.7344-3.7031 1.1641-0.80078 2.9727-1.2031 5.4219-1.2031z"/>
  </symbol>
  <symbol id="d" overflow="visible">
   <path d="m12.047-12.188c-1.3555 0-2.3906 0.39062-3.1094 1.1719-0.71094 0.78125-1.0625 1.9062-1.0625 3.375s0.35156 2.5938 1.0625 3.375c0.71875 0.77344 1.7539 1.1562 3.1094 1.1562 1.332 0 2.3516-0.38281 3.0625-1.1562 0.70703-0.78125 1.0625-1.9062 1.0625-3.375s-0.35547-2.5938-1.0625-3.375c-0.71094-0.78125-1.7305-1.1719-3.0625-1.1719zm0-3.5c3.2891 0 5.8633 0.71484 7.7188 2.1406 1.8516 1.418 2.7812 3.3867 2.7812 5.9062 0 2.5117-0.92969 4.4805-2.7812 5.9062-1.8555 1.418-4.4297 2.125-7.7188 2.125-3.3047 0-5.8867-0.70703-7.75-2.125-1.8672-1.4258-2.7969-3.3945-2.7969-5.9062 0-2.5195 0.92969-4.4883 2.7969-5.9062 1.8633-1.4258 4.4453-2.1406 7.75-2.1406z"/>
  </symbol>
  <symbol id="q" overflow="visible">
   <path d="m20.672-12.766c0.78125-0.94531 1.7031-1.6719 2.7656-2.1719s2.2344-0.75 3.5156-0.75c2.1953 0 3.8672 0.54688 5.0156 1.6406 1.1562 1.0859 1.7344 2.6562 1.7344 4.7188v9.3281h-6.1562v-7.9844c0.007813-0.11328 0.015625-0.23438 0.015625-0.35938 0.007812-0.13281 0.015625-0.32031 0.015625-0.5625 0-1.082-0.19922-1.8633-0.59375-2.3438-0.39844-0.48828-1.043-0.73438-1.9375-0.73438-1.1562 0-2.0547 0.38672-2.6875 1.1562-0.63672 0.76172-0.96484 1.8672-0.98438 3.3125v7.5156h-6.1406v-7.9844c0-1.6953-0.18359-2.7852-0.54688-3.2656-0.36719-0.48828-1.0156-0.73438-1.9531-0.73438-1.1797 0-2.0859 0.38672-2.7188 1.1562-0.63672 0.76172-0.95312 1.8594-0.95312 3.2969v7.5312h-6.1562v-15.312h6.1562v2.2344c0.75-0.86328 1.6094-1.5156 2.5781-1.9531 0.97656-0.4375 2.0547-0.65625 3.2344-0.65625 1.3125 0 2.4727 0.25781 3.4844 0.76562 1.0195 0.51172 1.7891 1.2305 2.3125 2.1562z"/>
  </symbol>
  <symbol id="p" overflow="visible">
   <path d="m3.2188-20.406h7.3438l9.2812 14v-14h6.2344v20.406h-7.3438l-9.2812-14v14h-6.2344z"/>
  </symbol>
  <symbol id="o" overflow="visible">
   <path d="m3.2188-20.406h10.922c3.2383 0 5.7266 0.57812 7.4688 1.7344 1.7383 1.1484 2.6094 2.7891 2.6094 4.9219 0 2.1367-0.87109 3.7812-2.6094 4.9375-1.7422 1.1562-4.2305 1.7344-7.4688 1.7344h-4.3438v7.0781h-6.5781zm6.5781 3.8125v5.7031h3.6406c1.2695 0 2.2539-0.25 2.9531-0.75 0.69531-0.5 1.0469-1.2031 1.0469-2.1094 0-0.91406-0.35156-1.6172-1.0469-2.1094-0.69922-0.48828-1.6836-0.73438-2.9531-0.73438z"/>
  </symbol>
  <symbol id="n" overflow="visible">
   <path d="m2.9375-15.312h6.125v15.031c0 2.0508-0.62109 3.6172-1.8594 4.7031-1.2305 1.082-3.0117 1.625-5.3438 1.625h-3.0156v-3.2188h1.0469c1.1641 0 1.9609-0.21094 2.3906-0.625 0.4375-0.41797 0.65625-1.2461 0.65625-2.4844zm0-5.9688h6.125v4h-6.125z"/>
  </symbol>
 </defs>
 <g>
  <path d="m372.05 94.078c-6.0664-4.8516-13.418-7.2773-22.051-7.2773s-16.102 2.4258-22.398 7.2773c-6.0664 5.043-9.1016 11.016-9.1016 17.922v275.24l-86.449-69.16c-6.0664-4.8516-13.418-7.2773-22.051-7.2773s-16.102 2.4258-22.398 7.2773c-6.0664 5.043-9.1016 11.016-9.1016 17.922s3.0352 12.785 9.1016 17.641l140 112c6.2969 5.0391 13.766 7.5586 22.398 7.5586s15.984-2.5195 22.051-7.5586l140-112c6.3008-4.8555 9.4492-10.734 9.4492-17.641s-3.1484-12.879-9.4492-17.922c-6.0664-4.8516-13.418-7.2773-22.051-7.2773s-16.102 2.4258-22.398 7.2773l-86.102 69.16v-275.24c0-6.9062-3.1484-12.879-9.4492-17.922z"/>
 </g>
</svg>
